<svg width="24" height="24" viewBox="0 0 24 24" fill="none" xmlns="http://www.w3.org/2000/svg">
<path d="M17.7632 13.18V10C17.7618 8.58312 17.2656 7.21247 16.3625 6.13077C15.4594 5.04908 14.2076 4.32615 12.829 4.09V3C12.829 2.73478 12.725 2.48043 12.5399 2.29289C12.3549 2.10536 12.1039 2 11.8421 2C11.5804 2 11.3294 2.10536 11.1443 2.29289C10.9593 2.48043 10.8553 2.73478 10.8553 3V4.09C9.4766 4.32615 8.22488 5.04908 7.32178 6.13077C6.41868 7.21247 5.92249 8.58312 5.92107 10V13.18C5.3452 13.3863 4.8464 13.7681 4.49305 14.2729C4.1397 14.7778 3.9491 15.3811 3.94739 16V18C3.94739 18.2652 4.05136 18.5196 4.23643 18.7071C4.4215 18.8946 4.6725 19 4.93423 19H8.03291C8.26017 19.8474 8.75627 20.5954 9.44469 21.1287C10.1331 21.6621 10.9756 21.951 11.8421 21.951C12.7087 21.951 13.5511 21.6621 14.2396 21.1287C14.928 20.5954 15.4241 19.8474 15.6513 19H18.75C19.0117 19 19.2628 18.8946 19.4478 18.7071C19.6329 18.5196 19.7369 18.2652 19.7369 18V16C19.7351 15.3811 19.5445 14.7778 19.1912 14.2729C18.8378 13.7681 18.339 13.3863 17.7632 13.18ZM7.89476 10C7.89476 8.93913 8.31064 7.92172 9.05091 7.17157C9.79119 6.42143 10.7952 6 11.8421 6C12.889 6 13.8931 6.42143 14.6333 7.17157C15.3736 7.92172 15.7895 8.93913 15.7895 10V13H7.89476V10ZM11.8421 20C11.4977 19.9979 11.1598 19.9045 10.862 19.7291C10.5643 19.5536 10.317 19.3023 10.1448 19H13.5395C13.3673 19.3023 13.12 19.5536 12.8222 19.7291C12.5245 19.9045 12.1866 19.9979 11.8421 20ZM17.7632 17H5.92107V16C5.92107 15.7348 6.02504 15.4804 6.21011 15.2929C6.39518 15.1054 6.64619 15 6.90791 15H16.7763C17.0381 15 17.2891 15.1054 17.4741 15.2929C17.6592 15.4804 17.7632 15.7348 17.7632 16V17Z" fill="#BDBDBD"/>
</svg>
