<svg width="24" height="24" viewBox="0 0 24 24" fill="none" xmlns="http://www.w3.org/2000/svg">
<path d="M11 7.99602L17 7.99602C17.2652 7.99602 17.5196 7.89067 17.7071 7.70313C17.8946 7.5156 18 7.26124 18 6.99602C18 6.73081 17.8946 6.47645 17.7071 6.28892C17.5196 6.10138 17.2652 5.99602 17 5.99602L11 5.99602C10.7348 5.99602 10.4804 6.10138 10.2929 6.28892C10.1054 6.47645 9.99999 6.73081 9.99999 6.99602C9.99999 7.26124 10.1054 7.5156 10.2929 7.70313C10.4804 7.89067 10.7348 7.99602 11 7.99602ZM15 13.996L13 13.996C12.7348 13.996 12.4804 14.1014 12.2929 14.2889C12.1054 14.4765 12 14.7308 12 14.996C12 15.2612 12.1054 15.5156 12.2929 15.7031C12.4804 15.8907 12.7348 15.996 13 15.996L15 15.996C15.2652 15.996 15.5196 15.8907 15.7071 15.7031C15.8946 15.5156 16 15.2612 16 14.996C16 14.7308 15.8946 14.4765 15.7071 14.2889C15.5196 14.1014 15.2652 13.996 15 13.996ZM2.99999 11.996L5.99999 11.996L5.99999 20.996C5.99929 21.1722 6.04517 21.3455 6.13297 21.4983C6.22077 21.6511 6.34739 21.7779 6.49999 21.866C6.65201 21.9538 6.82446 22 6.99999 22C7.17553 22 7.34797 21.9538 7.49999 21.866L10.5 20.146L13.5 21.866C13.652 21.9538 13.8245 22 14 22C14.1755 22 14.348 21.9538 14.5 21.866L17.5 20.146L20.5 21.866C20.652 21.9538 20.8245 22 21 22C21.1755 22 21.348 21.9538 21.5 21.866C21.6526 21.7779 21.7792 21.6511 21.867 21.4983C21.9548 21.3455 22.0007 21.1722 22 20.996L22 4.99603C22 4.20038 21.6839 3.43731 21.1213 2.8747C20.5587 2.3121 19.7956 1.99602 19 1.99602L4.99999 1.99602C4.20435 1.99602 3.44128 2.31209 2.87867 2.8747C2.31606 3.43731 1.99999 4.20037 1.99999 4.99602L1.99999 10.996C1.99999 11.2612 2.10535 11.5156 2.29289 11.7031C2.48042 11.8907 2.73478 11.996 2.99999 11.996ZM19 3.99602C19.2652 3.99602 19.5196 4.10138 19.7071 4.28892C19.8946 4.47645 20 4.73081 20 4.99602L20 19.266L18 18.126C17.8457 18.0454 17.6741 18.0033 17.5 18.0033C17.3259 18.0033 17.1543 18.0454 17 18.126L14 19.846L11 18.126C10.8457 18.0454 10.6741 18.0033 10.5 18.0033C10.3259 18.0033 10.1543 18.0454 9.99999 18.126L7.99999 19.266L7.99999 4.99602C7.99729 4.65488 7.93642 4.3167 7.81999 3.99602L19 3.99602ZM3.99999 4.99602C3.99999 4.73081 4.10535 4.47645 4.29289 4.28892C4.48042 4.10138 4.73478 3.99602 4.99999 3.99602C5.26521 3.99602 5.51957 4.10138 5.7071 4.28892C5.89464 4.47645 5.99999 4.73081 5.99999 4.99602L5.99999 9.99602L3.99999 9.99602L3.99999 4.99602ZM11 11.996L17 11.996C17.2652 11.996 17.5196 11.8907 17.7071 11.7031C17.8946 11.5156 18 11.2612 18 10.996C18 10.7308 17.8946 10.4765 17.7071 10.2889C17.5196 10.1014 17.2652 9.99602 17 9.99602L11 9.99602C10.7348 9.99602 10.4804 10.1014 10.2929 10.2889C10.1054 10.4765 9.99999 10.7308 9.99999 10.996C9.99999 11.2612 10.1054 11.5156 10.2929 11.7031C10.4804 11.8907 10.7348 11.996 11 11.996Z" fill="#BDBDBD"/>
</svg>
