<svg width="24" height="24" viewBox="0 0 24 24" fill="none" xmlns="http://www.w3.org/2000/svg">
<path fill-rule="evenodd" clip-rule="evenodd" d="M11.8421 23C5.84688 23 0.986816 18.0751 0.986816 12C0.986816 5.92487 5.84688 1 11.8421 1C17.8373 1 22.6973 5.92487 22.6973 12C22.6973 18.0751 17.8373 23 11.8421 23ZM19.1442 17.1246C20.1401 15.6703 20.7237 13.9042 20.7237 12C20.7237 7.02944 16.7472 3 11.8421 3C6.93692 3 2.9605 7.02944 2.9605 12C2.9605 13.9042 3.5441 15.6703 4.53994 17.1246C5.65058 15.6381 8.26044 15 11.8421 15C15.4237 15 18.0336 15.6381 19.1442 17.1246ZM17.7283 18.7398C17.4394 17.6874 15.3645 17 11.8421 17C8.31966 17 6.24471 17.6874 5.95588 18.7398C7.52297 20.1462 9.58412 21 11.8421 21C14.1 21 16.1612 20.1462 17.7283 18.7398ZM11.8421 6C9.45303 6 7.89471 7.75576 7.89471 10C7.89471 13.4274 9.6324 15 11.8421 15C14.031 15 15.7894 13.4796 15.7894 10.2C15.7894 7.92158 14.2245 6 11.8421 6ZM9.8684 10C9.8684 12.2693 10.6758 13 11.8421 13C13.0043 13 13.8158 12.2984 13.8158 10.2C13.8158 8.95042 13.0417 8 11.8421 8C10.5925 8 9.8684 8.81582 9.8684 10Z" fill="#FC8210"/>
</svg>
