<svg width="20" height="20" viewBox="0 0 20 20" fill="none" xmlns="http://www.w3.org/2000/svg">
<g id="uil:arrow-circle-right">
<path id="Vector" d="M13.0916 10.5918C13.1675 10.5125 13.227 10.419 13.2666 10.3168C13.35 10.1139 13.35 9.8863 13.2666 9.68342C13.227 9.58113 13.1675 9.48767 13.0916 9.40842L10.5916 6.90842C10.4347 6.7515 10.2219 6.66334 9.99996 6.66334C9.77804 6.66334 9.56522 6.7515 9.4083 6.90842C9.25138 7.06534 9.16322 7.27817 9.16322 7.50008C9.16322 7.722 9.25138 7.93483 9.4083 8.09175L10.4916 9.16675H7.49996C7.27895 9.16675 7.06699 9.25455 6.91071 9.41083C6.75443 9.56711 6.66663 9.77907 6.66663 10.0001C6.66663 10.2211 6.75443 10.4331 6.91071 10.5893C7.06699 10.7456 7.27895 10.8334 7.49996 10.8334H10.4916L9.4083 11.9084C9.33019 11.9859 9.26819 12.0781 9.22589 12.1796C9.18358 12.2812 9.1618 12.3901 9.1618 12.5001C9.1618 12.6101 9.18358 12.719 9.22589 12.8206C9.26819 12.9221 9.33019 13.0143 9.4083 13.0918C9.48577 13.1699 9.57793 13.2319 9.67948 13.2742C9.78103 13.3165 9.88995 13.3383 9.99996 13.3383C10.11 13.3383 10.2189 13.3165 10.3204 13.2742C10.422 13.2319 10.5142 13.1699 10.5916 13.0918L13.0916 10.5918ZM18.3333 10.0001C18.3333 8.35191 17.8446 6.74074 16.9289 5.37033C16.0132 3.99992 14.7117 2.93182 13.189 2.30109C11.6663 1.67036 9.99072 1.50533 8.37421 1.82687C6.7577 2.14842 5.27284 2.94209 4.10741 4.10753C2.94197 5.27297 2.1483 6.75782 1.82675 8.37433C1.50521 9.99084 1.67024 11.6664 2.30097 13.1891C2.9317 14.7118 3.9998 16.0133 5.37021 16.929C6.74062 17.8447 8.35179 18.3334 9.99996 18.3334C12.2101 18.3334 14.3297 17.4554 15.8925 15.8926C17.4553 14.3298 18.3333 12.2102 18.3333 10.0001ZM3.3333 10.0001C3.3333 8.68154 3.72429 7.39261 4.45683 6.29628C5.18938 5.19996 6.23057 4.34547 7.44874 3.84089C8.66691 3.3363 10.0074 3.20428 11.3006 3.46152C12.5938 3.71875 13.7817 4.35369 14.714 5.28604C15.6464 6.21839 16.2813 7.40628 16.5385 8.69948C16.7958 9.99269 16.6637 11.3331 16.1592 12.5513C15.6546 13.7695 14.8001 14.8107 13.7038 15.5432C12.6074 16.2758 11.3185 16.6668 9.99996 16.6668C8.23185 16.6668 6.53616 15.9644 5.28592 14.7141C4.03568 13.4639 3.3333 11.7682 3.3333 10.0001Z" fill="#FC8210"/>
</g>
</svg>
