<svg width="55" height="55" viewBox="0 0 55 55" fill="none" xmlns="http://www.w3.org/2000/svg">
<g id="ls:info" clip-path="url(#clip0_41_1943)">
<path id="Vector" d="M27.4616 0C42.6499 0 55 12.3501 55 27.5384C55 42.7266 42.6499 55 27.4616 55C12.2734 55 0 42.7266 0 27.5384C0 12.3501 12.2734 0 27.4616 0ZM27.1548 10.1255C26.3877 11.046 26.0042 12.1199 26.0042 13.2706C26.0042 14.1911 26.311 14.9582 26.7713 15.4951C27.3082 16.0321 28.0753 16.3389 28.8424 16.3389C29.9163 16.3389 30.9135 15.8787 31.6806 14.9582C32.371 14.1144 32.7545 12.887 32.7545 11.583C32.7545 10.8159 32.5244 10.1255 31.9874 9.58856C31.4505 9.0516 30.6834 8.74477 29.9163 8.74477C28.9191 8.74477 27.9219 9.20502 27.1548 10.1255ZM20.1743 26.0042L21.0948 27.0014C21.7852 26.2343 22.4756 25.6206 22.9358 25.2371C23.3961 24.9303 23.7796 24.7768 24.0865 24.7768C24.3166 24.7768 24.5467 24.8536 24.7001 25.007C24.7768 25.2371 24.8536 25.4672 24.8536 25.8508C24.8536 27.7685 24.6234 28.9958 23.6262 33.5983C22.629 38.2008 22.0921 41.576 22.0921 43.8006C22.0921 44.6444 22.2455 45.258 22.5523 45.6416C22.7824 46.0251 23.2427 46.3319 23.8563 46.3319C24.8536 46.3319 26.311 45.5649 27.9986 44.2608C29.6862 42.8801 31.3738 40.9623 33.2148 38.5077L32.2176 37.6639C31.6039 38.431 30.9902 38.9679 30.53 39.3515C30.0697 39.6583 29.6862 39.9651 29.3794 39.9651C29.1492 39.9651 28.9191 39.735 28.7657 39.5816C28.689 39.3515 28.6123 39.0446 28.6123 38.5844C28.6123 38.2775 28.689 37.2803 28.9958 35.516C29.2259 33.7517 29.1492 33.7517 29.6095 31.1437C29.6862 30.3766 29.9163 29.3027 30.1464 27.9986C30.7601 24.0865 31.1437 21.7085 31.1437 20.9414C31.1437 20.251 30.9135 19.6374 30.6834 19.2538C30.3766 18.8703 29.9163 18.7169 29.3794 18.7169C28.4589 18.7169 27.2315 19.4073 25.5439 20.6346C23.8563 21.9386 22.1688 23.7029 20.1743 26.0042Z" fill="#FC8210"/>
</g>
<defs>
<clipPath id="clip0_41_1943">
<rect width="55" height="55" fill="white"/>
</clipPath>
</defs>
</svg>
