<svg width="55" height="55" viewBox="0 0 55 55" fill="none" xmlns="http://www.w3.org/2000/svg">
<g id="ri:file-list-3-fill">
<path id="Vector" d="M43.5417 50.4166H11.4584C9.63501 50.4166 7.88633 49.6923 6.59702 48.4029C5.3077 47.1136 4.58337 45.3649 4.58337 43.5416V6.87492C4.58337 6.26713 4.82482 5.68424 5.25459 5.25447C5.68436 4.82469 6.26725 4.58325 6.87504 4.58325H38.9584C39.5662 4.58325 40.1491 4.82469 40.5788 5.25447C41.0086 5.68424 41.25 6.26713 41.25 6.87492V34.3749H50.4167V43.5416C50.4167 45.3649 49.6924 47.1136 48.4031 48.4029C47.1138 49.6923 45.3651 50.4166 43.5417 50.4166ZM41.25 38.9583V43.5416C41.25 44.1494 41.4915 44.7323 41.9213 45.162C42.351 45.5918 42.9339 45.8333 43.5417 45.8333C44.1495 45.8333 44.7324 45.5918 45.1622 45.162C45.5919 44.7323 45.8334 44.1494 45.8334 43.5416V38.9583H41.25ZM13.75 16.0416V20.6249H32.0834V16.0416H13.75ZM13.75 25.2083V29.7916H32.0834V25.2083H13.75ZM13.75 34.3749V38.9583H25.2084V34.3749H13.75Z" fill="#FC8210"/>
</g>
</svg>
