<svg width="20" height="20" viewBox="0 0 20 20" fill="none" xmlns="http://www.w3.org/2000/svg">
<g id="uil:arrow-circle-right">
<path id="Vector" d="M6.90837 10.5918C6.8325 10.5125 6.77303 10.419 6.73337 10.3168C6.65002 10.1139 6.65002 9.8863 6.73337 9.68342C6.77303 9.58113 6.8325 9.48767 6.90837 9.40842L9.40837 6.90842C9.56529 6.7515 9.77812 6.66334 10 6.66334C10.222 6.66334 10.4348 6.7515 10.5917 6.90842C10.7486 7.06534 10.8368 7.27817 10.8368 7.50008C10.8368 7.722 10.7486 7.93483 10.5917 8.09175L9.50837 9.16675H12.5C12.7211 9.16675 12.933 9.25455 13.0893 9.41083C13.2456 9.56711 13.3334 9.77907 13.3334 10.0001C13.3334 10.2211 13.2456 10.4331 13.0893 10.5893C12.933 10.7456 12.7211 10.8334 12.5 10.8334H9.50837L10.5917 11.9084C10.6698 11.9859 10.7318 12.0781 10.7741 12.1796C10.8164 12.2812 10.8382 12.3901 10.8382 12.5001C10.8382 12.6101 10.8164 12.719 10.7741 12.8206C10.7318 12.9221 10.6698 13.0143 10.5917 13.0918C10.5142 13.1699 10.4221 13.2319 10.3205 13.2742C10.219 13.3165 10.11 13.3383 10 13.3383C9.89003 13.3383 9.78111 13.3165 9.67956 13.2742C9.57801 13.2319 9.48584 13.1699 9.40837 13.0918L6.90837 10.5918ZM1.6667 10.0001C1.6667 8.35191 2.15545 6.74074 3.07113 5.37033C3.9868 3.99992 5.28829 2.93182 6.81101 2.30109C8.33373 1.67036 10.0093 1.50533 11.6258 1.82687C13.2423 2.14842 14.7272 2.94209 15.8926 4.10753C17.058 5.27297 17.8517 6.75782 18.1732 8.37433C18.4948 9.99084 18.3298 11.6664 17.699 13.1891C17.0683 14.7118 16.0002 16.0133 14.6298 16.929C13.2594 17.8447 11.6482 18.3334 10 18.3334C7.7899 18.3334 5.67028 17.4554 4.10748 15.8926C2.54468 14.3298 1.6667 12.2102 1.6667 10.0001ZM16.6667 10.0001C16.6667 8.68154 16.2757 7.39261 15.5432 6.29628C14.8106 5.19996 13.7694 4.34547 12.5513 3.84089C11.3331 3.3363 9.99264 3.20428 8.69944 3.46152C7.40623 3.71875 6.21834 4.35369 5.28599 5.28604C4.35364 6.21839 3.7187 7.40628 3.46147 8.69948C3.20423 9.99269 3.33626 11.3331 3.84084 12.5513C4.34542 13.7695 5.19991 14.8107 6.29624 15.5432C7.39256 16.2758 8.68149 16.6668 10 16.6668C11.7681 16.6668 13.4638 15.9644 14.7141 14.7141C15.9643 13.4639 16.6667 11.7682 16.6667 10.0001Z" fill="#BDBDBD"/>
</g>
</svg>
