<svg width="20" height="20" viewBox="0 0 20 20" fill="none" xmlns="http://www.w3.org/2000/svg">
<g id="uil:pricetag-alt">
<path id="Vector" d="M5.83343 5.00009C5.66861 5.00009 5.50749 5.04897 5.37045 5.14054C5.23341 5.2321 5.1266 5.36225 5.06353 5.51453C5.00046 5.6668 4.98395 5.83435 5.01611 5.996C5.04826 6.15765 5.12763 6.30614 5.24417 6.42268C5.36072 6.53923 5.5092 6.61859 5.67085 6.65075C5.8325 6.6829 6.00006 6.6664 6.15233 6.60333C6.3046 6.54025 6.43475 6.43344 6.52632 6.2964C6.61789 6.15936 6.66676 5.99825 6.66676 5.83343C6.66676 5.61241 6.57896 5.40045 6.42268 5.24417C6.2664 5.08789 6.05444 5.00009 5.83343 5.00009ZM18.0918 9.81676L10.1918 1.93343C10.1141 1.84965 10.02 1.78274 9.91531 1.73687C9.81066 1.69099 9.69769 1.66713 9.58343 1.66676H4.58343C4.47376 1.66613 4.36504 1.68715 4.26351 1.72862C4.16198 1.77009 4.06963 1.83119 3.99176 1.90843L1.90843 3.98343C1.83119 4.0613 1.77009 4.15364 1.72862 4.25517C1.68715 4.3567 1.66613 4.46542 1.66676 4.57509V9.57509C1.66983 9.79573 1.75615 10.0071 1.90843 10.1668L9.81676 18.0834C9.97646 18.2357 10.1878 18.322 10.4084 18.3251C10.5181 18.3257 10.6268 18.3047 10.7284 18.2632C10.8299 18.2218 10.9222 18.1607 11.0001 18.0834L18.0918 10.9918C18.169 10.9139 18.2301 10.8215 18.2716 10.72C18.313 10.6185 18.3341 10.5098 18.3334 10.4001C18.3283 10.1823 18.2421 9.97435 18.0918 9.81676ZM10.4084 16.3251L3.33343 9.24176V4.91676L4.91676 3.33343H9.23343L16.3168 10.4084L10.4084 16.3251Z" fill="#BDBDBD"/>
</g>
</svg>
