<svg width="20" height="20" viewBox="0 0 20 20" fill="none"
    xmlns="http://www.w3.org/2000/svg">
    <g id="uil:dollar-alt">
        <path id="Vector" d="M11.6667 9.16675H10.8333V5.83342H12.5C12.721 5.83342 12.933 5.92121 13.0893 6.07749C13.2455 6.23377 13.3333 6.44573 13.3333 6.66675C13.3333 6.88776 13.4211 7.09972 13.5774 7.256C13.7337 7.41228 13.9457 7.50008 14.1667 7.50008C14.3877 7.50008 14.5996 7.41228 14.7559 7.256C14.9122 7.09972 15 6.88776 15 6.66675C15 6.00371 14.7366 5.36782 14.2678 4.89898C13.7989 4.43014 13.163 4.16675 12.5 4.16675H10.8333V2.50008C10.8333 2.27907 10.7455 2.06711 10.5893 1.91083C10.433 1.75455 10.221 1.66675 10 1.66675C9.77899 1.66675 9.56702 1.75455 9.41074 1.91083C9.25446 2.06711 9.16667 2.27907 9.16667 2.50008V4.16675H8.33333C7.44928 4.16675 6.60143 4.51794 5.97631 5.14306C5.35119 5.76818 5 6.61603 5 7.50008C5 8.38414 5.35119 9.23198 5.97631 9.8571C6.60143 10.4822 7.44928 10.8334 8.33333 10.8334H9.16667V14.1667H7.5C7.27899 14.1667 7.06702 14.079 6.91074 13.9227C6.75446 13.7664 6.66667 13.5544 6.66667 13.3334C6.66667 13.1124 6.57887 12.9004 6.42259 12.7442C6.26631 12.5879 6.05435 12.5001 5.83333 12.5001C5.61232 12.5001 5.40036 12.5879 5.24408 12.7442C5.0878 12.9004 5 13.1124 5 13.3334C5 13.9965 5.26339 14.6323 5.73223 15.1012C6.20107 15.57 6.83696 15.8334 7.5 15.8334H9.16667V17.5001C9.16667 17.7211 9.25446 17.9331 9.41074 18.0893C9.56702 18.2456 9.77899 18.3334 10 18.3334C10.221 18.3334 10.433 18.2456 10.5893 18.0893C10.7455 17.9331 10.8333 17.7211 10.8333 17.5001V15.8334H11.6667C12.5507 15.8334 13.3986 15.4822 14.0237 14.8571C14.6488 14.232 15 13.3841 15 12.5001C15 11.616 14.6488 10.7682 14.0237 10.1431C13.3986 9.51794 12.5507 9.16675 11.6667 9.16675ZM9.16667 9.16675H8.33333C7.89131 9.16675 7.46738 8.99115 7.15482 8.67859C6.84226 8.36603 6.66667 7.94211 6.66667 7.50008C6.66667 7.05805 6.84226 6.63413 7.15482 6.32157C7.46738 6.00901 7.89131 5.83342 8.33333 5.83342H9.16667V9.16675ZM11.6667 14.1667H10.8333V10.8334H11.6667C12.1087 10.8334 12.5326 11.009 12.8452 11.3216C13.1577 11.6341 13.3333 12.0581 13.3333 12.5001C13.3333 12.9421 13.1577 13.366 12.8452 13.6786C12.5326 13.9912 12.1087 14.1667 11.6667 14.1667Z" fill="#BDBDBD"/>
    </g>
</svg>
