<svg width="40" height="40" viewBox="0 0 40 40" fill="none"
    xmlns="http://www.w3.org/2000/svg">
    <circle cx="20" cy="20" r="20" fill="#BDBDBD"/>
    <path fill-rule="evenodd" clip-rule="evenodd" d="M12.234 16.0532C11.9175 16.2509 11.6566 16.5259 11.4757 16.8523C11.2949 17.1786 11.2 17.5456 11.2 17.9188V26.6C11.2 27.1834 11.4317 27.743 11.8443 28.1556C12.2569 28.5682 12.8165 28.8 13.4 28.8H26.5999C27.1834 28.8 27.743 28.5682 28.1556 28.1556C28.5682 27.743 28.7999 27.1834 28.7999 26.6V17.9188C28.7999 17.5456 28.705 17.1786 28.5242 16.8523C28.3433 16.5259 28.0824 16.2509 27.7659 16.0532L21.166 11.9282C20.8163 11.7096 20.4123 11.5938 20 11.5938C19.5876 11.5938 19.1836 11.7096 18.834 11.9282L12.234 16.0532ZM15.1105 18.7185C14.9903 18.6383 14.8555 18.5826 14.7137 18.5545C14.572 18.5264 14.4262 18.5265 14.2845 18.5548C14.1428 18.5831 14.0081 18.639 13.888 18.7194C13.768 18.7998 13.6649 18.903 13.5848 19.0232C13.5046 19.1433 13.4489 19.2781 13.4208 19.4199C13.3927 19.5616 13.3928 19.7074 13.4211 19.8491C13.4783 20.1352 13.6467 20.3869 13.8895 20.5489L19.3895 24.2152C19.5702 24.3358 19.7826 24.4001 20 24.4001C20.2173 24.4001 20.4297 24.3358 20.6105 24.2152L26.1104 20.5489C26.3532 20.3869 26.5216 20.1352 26.5788 19.8491C26.6359 19.563 26.5771 19.2659 26.4151 19.0232C26.2532 18.7804 26.0015 18.612 25.7154 18.5548C25.4293 18.4977 25.1322 18.5565 24.8895 18.7185L20 21.9778L15.1105 18.7185Z" fill="white"/>
</svg>
