<svg width="40" height="40" viewBox="0 0 40 40" fill="none"
    xmlns="http://www.w3.org/2000/svg">
    <circle cx="20" cy="20" r="20" fill="#FC8210"/>
    <path d="M27.2188 12.4375H12.7812C12.1433 12.4382 11.5316 12.6919 11.0805 13.143C10.6294 13.5941 10.3757 14.2058 10.375 14.8438V25.1562C10.3757 25.7942 10.6294 26.4059 11.0805 26.857C11.5316 27.3081 12.1433 27.5618 12.7812 27.5625H27.2188C27.8567 27.5618 28.4684 27.3081 28.9195 26.857C29.3706 26.4059 29.6243 25.7942 29.625 25.1562V14.8438C29.6243 14.2058 29.3706 13.5941 28.9195 13.143C28.4684 12.6919 27.8567 12.4382 27.2188 12.4375ZM26.6095 16.4177L20.422 21.2302C20.3013 21.324 20.1528 21.3749 20 21.3749C19.8472 21.3749 19.6987 21.324 19.578 21.2302L13.3905 16.4177C13.3178 16.3628 13.2568 16.294 13.2109 16.2153C13.165 16.1366 13.1353 16.0496 13.1233 15.9592C13.1114 15.8689 13.1175 15.7771 13.1413 15.6892C13.1651 15.6013 13.2062 15.519 13.2621 15.4471C13.318 15.3751 13.3877 15.3151 13.467 15.2703C13.5464 15.2255 13.6338 15.197 13.7243 15.1863C13.8147 15.1756 13.9064 15.183 13.994 15.2081C14.0816 15.2332 14.1633 15.2754 14.2345 15.3323L20 19.8165L25.7655 15.3323C25.9097 15.2234 26.0909 15.1757 26.27 15.1994C26.4491 15.2231 26.6117 15.3163 26.7226 15.4589C26.8335 15.6016 26.8838 15.7821 26.8626 15.9615C26.8414 16.1409 26.7505 16.3048 26.6095 16.4177Z" fill="white"/>
</svg>
